# xmcd
#
# Track frame offsets:
#	187
#	17940
#	34687
#	53997
#	74232
#	92912
#	111642
#	127237
#	140137
#	154900
#
# Disc length: 2326 seconds
#
# Revision: 1
# Processed by: cddbd v1.5.1PL0 Copyright (c) Steve Scherf et al.
# Submitted via: CDex 1.50Beta5
#
DISCID=a409140a
DTITLE=小泉今日子 - 小泉今日子Vol.2
DYEAR=1989
DGENRE=Pop
TTITLE0=半分少女
TTITLE1=ココナッツ・ドリーム
TTITLE2=艶姿ナミダ娘
TTITLE3=乱れるハート
TTITLE4=渚のはいから人魚
TTITLE5=風のマジカル
TTITLE6=迷宮のアンドローラ
TTITLE7=DUNK
TTITLE8=ヤマトナデシコ七変化
TTITLE9=ヨコハマ・スイート・レイン
EXTD=
EXTT0=
EXTT1=
EXTT2=
EXTT3=
EXTT4=
EXTT5=
EXTT6=
EXTT7=
EXTT8=
EXTT9=
PLAYORDER=
